<?xml version="1.0" encoding="UTF-8" standalone="no"?>
<!-- Uploaded to: SVG Repo, www.svgrepo.com, Generator: SVG Repo Mixer Tools -->

<svg
   version="1.1"
   id="Capa_1"
   viewBox="0 0 470 470"
   xml:space="preserve"
   sodipodi:docname="icon.svg"
   inkscape:version="1.2.2 (732a01da63, 2022-12-09)"
   xmlns:inkscape="http://www.inkscape.org/namespaces/inkscape"
   xmlns:sodipodi="http://sodipodi.sourceforge.net/DTD/sodipodi-0.dtd"
   xmlns="http://www.w3.org/2000/svg"
   xmlns:svg="http://www.w3.org/2000/svg"><defs
   id="defs45" /><sodipodi:namedview
   id="namedview43"
   pagecolor="#505050"
   bordercolor="#eeeeee"
   borderopacity="1"
   inkscape:showpageshadow="0"
   inkscape:pageopacity="0"
   inkscape:pagecheckerboard="0"
   inkscape:deskcolor="#505050"
   showgrid="false"
   inkscape:zoom="1.0510638"
   inkscape:cx="63.269231"
   inkscape:cy="237.85425"
   inkscape:window-width="1366"
   inkscape:window-height="697"
   inkscape:window-x="-8"
   inkscape:window-y="-8"
   inkscape:window-maximized="1"
   inkscape:current-layer="Capa_1" />
<g
   id="g40">
	<path
   style="fill:#e9b264;stroke-width:1.30105"
   d="m 218.85593,63.714539 c 0,0.0012 20.9664,0.0012 20.9664,0.0012 0,-5.018463 4.69369,-9.083854 10.48322,-9.083854 h 42.51149 c 5.78113,0 10.4832,-4.073869 10.4832,-9.082643 0,-5.008775 -4.70207,-9.082643 -10.4832,-9.082643 h -98.42192 c -5.78114,0 -10.4832,4.073868 -10.4832,9.082643 0,5.008774 4.70206,9.082643 10.4832,9.082643 h 13.9776 c 5.79093,0 10.48321,4.066601 10.48321,9.082642 z"
   id="path28" />
	<path
   style="fill:#f59b45;stroke-width:1.30105"
   d="m 208.37272,72.797179 h -13.9776 c -5.78114,0 -10.4832,4.07387 -10.4832,9.08265 0,5.00878 4.70206,9.08264 10.4832,9.08264 h 98.42192 c 5.78113,0 10.4832,-4.07386 10.4832,-9.08264 0,-5.00878 -4.70207,-9.08265 -10.4832,-9.08265 h -42.51149 c -5.78953,0 -10.48181,-4.06539 -10.48322,-9.081428 h -20.9664 c 0,5.014828 -4.69369,9.081428 -10.48321,9.081428 z"
   id="path30" />
	<path
   style="fill:#e9b264;stroke-width:1.30105"
   d="m 194.39512,127.29304 h 98.42192 c 5.78113,0 10.4832,-4.07387 10.4832,-9.08264 0,-5.00878 -4.70207,-9.08264 -10.4832,-9.08264 h -98.42192 c -5.78114,0 -10.4832,4.07386 -10.4832,9.08264 0,5.00877 4.70346,9.08264 10.4832,9.08264 z"
   id="path32" />
	<path
   style="fill:#f59b45;stroke-width:1.30105"
   d="m 286.86817,145.45833 h -36.78766 c 4.21983,5.96911 8.4243,12.03148 12.58403,18.1568 5.0543,-2.53224 11.46443,-1.04632 14.36059,3.2964 26.85518,40.25427 69.05216,146.08708 69.05216,185.97079 10e-4,50.31663 -45.34566,-58.11978 -103.42262,-58.11978 -58.07696,0 -120.54954,115.09633 -120.54954,64.77727 0,-45.19401 73.72409,-172.44423 102.76397,-214.08269 h -24.52791 c -53.56638,77.7789 -125.842145,215.9582 -125.842145,251.18795 0,60.3354 98.517775,-48.51482 168.155615,-48.51482 69.63783,0 142.46735,88.87046 142.46735,28.53506 0,-35.22732 -44.68607,-153.42687 -98.25384,-231.20698 z"
   id="path34"
   sodipodi:nodetypes="cccccssccsssc" />
	
	<path
   style="fill:#34150c;stroke-width:1.30105"
   d="m 308.69001,141.71749 c 9.30909,-4.73751 15.57524,-13.49802 15.57524,-23.5083 0,-6.97305 -3.04292,-13.34059 -8.03293,-18.16529 4.9914,-4.824691 8.03293,-11.192231 8.03293,-18.165291 0,-6.97304 -3.04292,-13.340581 -8.03293,-18.16528 4.9914,-4.8247 8.03293,-11.192238 8.03293,-18.165286 0,-15.025113 -16.7673,-27.247927 -31.44961,-27.247927 h -17.75995 c -20.36571,10.195557 57.45189,-0.190167 -20.96641,0.0012 h -20.9664 c 41.57964,-2.501069 -86.88895,-1.52546 -20.96641,0 h -17.76275 c -17.34202,0 -31.44961,12.222815 -31.44961,27.247928 0,6.973048 3.04292,13.340586 8.03292,18.165285 -4.9914,4.8247 -8.03292,11.19224 -8.03292,18.16529 0,6.97305 3.04292,13.34058 8.03292,18.165291 -4.9914,4.8247 -8.03292,11.19222 -8.03292,18.16527 0,10.0103 6.26615,18.7708 15.57524,23.5083 -39.01429,57.32722 -105.958372,222.78609 -105.958372,270.15026 0,70.35052 97.457732,-56.03899 174.850772,-56.99041 81.19256,-0.99813 149.1625,128.29235 149.1625,57.94063 0,-47.36175 -48.86855,-213.77204 -87.88424,-271.10167 z M 235.99474,328.1505 c -19.28492,-3.15286 -151.981525,126.92714 -151.981525,66.59219 0,-35.22975 62.761595,-171.50622 116.327975,-249.28512 h 24.52791 c -29.03988,41.63846 -117.03523,189.81986 -117.03523,235.01387 0,50.31906 70.26372,-81.79818 136.72363,-79.04853 75.7619,3.13452 112.00186,116.37494 110.08394,64.77727 -1.48144,-39.85496 -50.75973,-159.03635 -77.61491,-199.29062 -2.89756,-4.34272 -9.30769,-5.82864 -14.32286,-3.31819 -5.01935,2.54192 -6.71903,8.07749 -3.82986,12.40931 43.90926,65.81767 72.89838,128.01117 72.89838,154.04565 0,40.30151 -42.60146,-54.40004 -89.11753,-54.40004 -46.51608,0 -108.14588,103.2643 -108.14588,62.96279 0,-30.25852 59.21541,-115.16674 114.93294,-193.15151 h 0.63879 36.78766 c 53.56777,77.78012 91.59392,200.73796 91.59392,235.96528 0,60.3354 -96.69383,-61.3428 -129.14751,-56.12616 -12.91283,2.07563 -4.65966,4.26965 -13.31984,2.85381 z M 183.91052,45.549254 c 0,-5.008775 4.70206,-9.082642 10.4832,-9.082642 h 98.42192 c 5.78113,0 10.4832,4.073867 10.4832,9.082642 0,5.008775 -4.70207,9.082643 -10.4832,9.082643 h -42.51149 c -5.78953,0 -10.48322,4.066601 -10.48322,9.082642 0.001,5.01725 4.69369,9.08264 10.48322,9.08264 h 42.51149 c 5.78113,0 10.4832,4.07387 10.4832,9.08265 0,5.00878 -4.70207,9.08264 -10.4832,9.08264 h -98.42192 c -5.78114,0 -10.4832,-4.07386 -10.4832,-9.08264 0,-5.00878 4.70206,-9.08265 10.4832,-9.08265 h 13.9776 c 5.78952,0 10.48181,-4.06539 10.48321,-9.081428 0,-5.018463 -4.69369,-9.083854 -10.48321,-9.083854 h -13.9776 c -5.77974,0 -10.4832,-4.075079 -10.4832,-9.082643 z m 10.4832,63.578506 h 98.42192 c 5.78113,0 10.4832,4.07386 10.4832,9.08264 0,5.00877 -4.70207,9.08264 -10.4832,9.08264 h -98.42192 c -5.78114,0 -10.4832,-4.07387 -10.4832,-9.08264 0,-5.00878 4.70346,-9.08264 10.4832,-9.08264 z"
   id="path38"
   sodipodi:nodetypes="cscscssccccsscscscssscssccssscccssscccsssssssscsssssssscsssssssssss" />
</g>
</svg>
